<svg width="25" height="21" viewBox="0 0 25 21" fill="none" xmlns="http://www.w3.org/2000/svg">
<path d="M1.96821 21C1.75385 21 1.55899 20.9465 1.38361 20.8396C1.20823 20.7326 1.07182 20.5917 0.974389 20.4167C0.876956 20.2417 0.823368 20.0521 0.813624 19.8479C0.803881 19.6438 0.857469 19.4444 0.974389 19.25L11.7895 0.583333C11.9064 0.388889 12.0574 0.243056 12.2425 0.145833C12.4276 0.0486111 12.6176 0 12.8125 0C13.0074 0 13.1974 0.0486111 13.3825 0.145833C13.5676 0.243056 13.7186 0.388889 13.8355 0.583333L24.6506 19.25C24.7675 19.4444 24.8211 19.6438 24.8114 19.8479C24.8016 20.0521 24.748 20.2417 24.6506 20.4167C24.5532 20.5917 24.4168 20.7326 24.2414 20.8396C24.066 20.9465 23.8711 21 23.6568 21H1.96821ZM3.98507 18.6667H21.6399L12.8125 3.5L3.98507 18.6667ZM12.8125 17.5C13.1438 17.5 13.4215 17.3882 13.6456 17.1646C13.8696 16.941 13.9817 16.6639 13.9817 16.3333C13.9817 16.0028 13.8696 15.7257 13.6456 15.5021C13.4215 15.2785 13.1438 15.1667 12.8125 15.1667C12.4812 15.1667 12.2035 15.2785 11.9794 15.5021C11.7554 15.7257 11.6433 16.0028 11.6433 16.3333C11.6433 16.6639 11.7554 16.941 11.9794 17.1646C12.2035 17.3882 12.4812 17.5 12.8125 17.5ZM12.8125 14C13.1438 14 13.4215 13.8882 13.6456 13.6646C13.8696 13.441 13.9817 13.1639 13.9817 12.8333V9.33333C13.9817 9.00278 13.8696 8.72569 13.6456 8.50208C13.4215 8.27847 13.1438 8.16667 12.8125 8.16667C12.4812 8.16667 12.2035 8.27847 11.9794 8.50208C11.7554 8.72569 11.6433 9.00278 11.6433 9.33333V12.8333C11.6433 13.1639 11.7554 13.441 11.9794 13.6646C12.2035 13.8882 12.4812 14 12.8125 14Z" fill="#2FAC66"/>
</svg>
