<svg width="60" height="60" viewBox="0 0 60 60" fill="none" xmlns="http://www.w3.org/2000/svg">
<rect width="59.0909" height="60" rx="29.5455" fill="url(#paint0_linear_223_3)"/>
<path d="M39.4622 39.2019C42.1783 38.714 44.8271 38.0309 47.3923 37.1705C44.8996 44.6825 37.7879 50.1046 29.405 50.1046C22.0725 50.1046 15.7136 45.957 12.5661 39.8917C13.9753 40.4942 15.5269 40.8268 17.1561 40.8268C17.3189 40.8268 17.4792 40.8234 17.6403 40.8166C19.6718 40.3245 23.2908 39.2299 26.613 37.1077C31.5781 33.9368 24.2763 33.4871 24.2763 33.4871C24.2763 33.4871 19.307 32.0268 22.4007 29.4329C18.8722 29.9114 15.4578 30.7472 12.1944 31.9012C12.1611 31.9123 12.1279 31.9241 12.0955 31.9369C11.8176 32.0344 11.5431 32.1354 11.2686 32.2389L11.3888 31.9012L12.1705 29.7112L13.8406 25.0299L14.9676 21.8734L15.9327 19.1683L16.3555 17.9838L17.0853 18.9833L17.2081 19.153L19.1126 21.7614L20.9327 19.2684L24.0691 14.9715L28.3445 9.11249L32.1536 14.3309L37.5764 21.7597L40.3565 17.9515L41.9106 15.8226L44.2286 22.3189H44.2295L45.1962 25.029L46.6796 29.1851L47.6481 31.9004L47.7888 32.2932C47.4665 32.1711 47.1408 32.0523 46.8143 31.936C46.7819 31.9233 46.7487 31.9123 46.7137 31.9004C42.1596 30.2907 37.3122 29.3005 32.2704 29.0315C31.5483 28.9916 30.8219 28.9679 30.0913 28.9602C30.1109 29.6509 30.7188 31.8333 37.2755 33.1833C41.8672 34.1286 40.9678 36.9915 39.4631 39.2027L39.4622 39.2019Z" fill="#F2F8F3"/>
<defs>
<linearGradient id="paint0_linear_223_3" x1="29.5455" y1="0" x2="29.5455" y2="60" gradientUnits="userSpaceOnUse">
<stop stop-color="#2FAC66"/>
<stop offset="1" stop-color="#4BC8EA"/>
</linearGradient>
</defs>
</svg>
