<svg width="171" height="33" viewBox="0 0 171 33" fill="none" xmlns="http://www.w3.org/2000/svg">
<mask id="mask0_125_161" style="mask-type:alpha" maskUnits="userSpaceOnUse" x="2" y="2" width="166" height="26">
<path d="M15.1895 2.92705C15.4888 2.00574 16.7922 2.00574 17.0916 2.92705L19.5398 10.4618C19.6737 10.8739 20.0576 11.1528 20.4908 11.1528H28.4134C29.3821 11.1528 29.7849 12.3924 29.0012 12.9618L22.5917 17.6186C22.2412 17.8733 22.0946 18.3246 22.2284 18.7366L24.6766 26.2714C24.976 27.1927 23.9215 27.9589 23.1378 27.3895L16.7283 22.7327C16.3778 22.4781 15.9032 22.4781 15.5527 22.7327L9.14326 27.3895C8.35955 27.9589 7.30507 27.1927 7.60442 26.2714L10.0526 18.7366C10.1865 18.3246 10.0398 17.8733 9.68935 17.6186L3.27987 12.9618C2.49616 12.3924 2.89893 11.1528 3.86766 11.1528H11.7902C12.2234 11.1528 12.6074 10.8739 12.7413 10.4618L15.1895 2.92705Z" fill="#2FAC66"/>
<path d="M49.6973 2.92705C49.9966 2.00574 51.3 2.00574 51.5994 2.92705L54.0476 10.4618C54.1815 10.8739 54.5654 11.1528 54.9987 11.1528H62.9212C63.8899 11.1528 64.2927 12.3924 63.509 12.9618L57.0995 17.6186C56.749 17.8733 56.6024 18.3246 56.7362 18.7366L59.1844 26.2714C59.4838 27.1927 58.4293 27.9589 57.6456 27.3895L51.2361 22.7327C50.8856 22.4781 50.411 22.4781 50.0606 22.7327L43.6511 27.3895C42.8674 27.9589 41.8129 27.1927 42.1122 26.2714L44.5604 18.7366C44.6943 18.3246 44.5477 17.8733 44.1972 17.6186L37.7877 12.9618C37.004 12.3924 37.4067 11.1528 38.3755 11.1528H46.298C46.7312 11.1528 47.1152 10.8739 47.2491 10.4618L49.6973 2.92705Z" fill="#2FAC66"/>
<path d="M84.2041 2.92705C84.5035 2.00574 85.8069 2.00574 86.1062 2.92705L88.5544 10.4618C88.6883 10.8739 89.0723 11.1528 89.5055 11.1528H97.428C98.3968 11.1528 98.7995 12.3924 98.0158 12.9618L91.6064 17.6186C91.2559 17.8733 91.1092 18.3246 91.2431 18.7366L93.6913 26.2714C93.9906 27.1927 92.9362 27.9589 92.1524 27.3895L85.743 22.7327C85.3925 22.4781 84.9179 22.4781 84.5674 22.7327L78.1579 27.3895C77.3742 27.9589 76.3197 27.1927 76.6191 26.2714L79.0673 18.7366C79.2011 18.3246 79.0545 17.8733 78.704 17.6186L72.2945 12.9618C71.5108 12.3924 71.9136 11.1528 72.8823 11.1528H80.8049C81.2381 11.1528 81.622 10.8739 81.7559 10.4618L84.2041 2.92705Z" fill="#2FAC66"/>
<path d="M118.712 2.92705C119.011 2.00574 120.315 2.00574 120.614 2.92705L123.062 10.4618C123.196 10.8739 123.58 11.1528 124.013 11.1528H131.936C132.905 11.1528 133.307 12.3924 132.524 12.9618L126.114 17.6186C125.764 17.8733 125.617 18.3246 125.751 18.7366L128.199 26.2714C128.498 27.1927 127.444 27.9589 126.66 27.3895L120.251 22.7327C119.9 22.4781 119.426 22.4781 119.075 22.7327L112.666 27.3895C111.882 27.9589 110.828 27.1927 111.127 26.2714L113.575 18.7366C113.709 18.3246 113.562 17.8733 113.212 17.6186L106.802 12.9618C106.019 12.3924 106.421 11.1528 107.39 11.1528H115.313C115.746 11.1528 116.13 10.8739 116.264 10.4618L118.712 2.92705Z" fill="#2FAC66"/>
<path d="M153.219 2.92705C153.518 2.00574 154.822 2.00574 155.121 2.92705L157.569 10.4618C157.703 10.8739 158.087 11.1528 158.52 11.1528H166.443C167.411 11.1528 167.814 12.3924 167.03 12.9618L160.621 17.6186C160.271 17.8733 160.124 18.3246 160.258 18.7366L162.706 26.2714C163.005 27.1927 161.951 27.9589 161.167 27.3895L154.758 22.7327C154.407 22.4781 153.933 22.4781 153.582 22.7327L147.173 27.3895C146.389 27.9589 145.334 27.1927 145.634 26.2714L148.082 18.7366C148.216 18.3246 148.069 17.8733 147.719 17.6186L141.309 12.9618C140.525 12.3924 140.928 11.1528 141.897 11.1528H149.82C150.253 11.1528 150.637 10.8739 150.771 10.4618L153.219 2.92705Z" fill="#2FAC66"/>
</mask>
<g mask="url(#mask0_125_161)">
<rect x="3.29736" y="1.44881" width="163.716" height="28.9762" fill="url(#paint0_linear_125_161)"/>
</g>
<defs>
<linearGradient id="paint0_linear_125_161" x1="3.29736" y1="15.9369" x2="167.013" y2="15.9369" gradientUnits="userSpaceOnUse">
<stop stop-color="#2FAC66"/>
<stop offset="1" stop-color="#4BC8EA"/>
</linearGradient>
</defs>
</svg>
