<svg width="103" height="35" viewBox="0 0 103 35" fill="none" xmlns="http://www.w3.org/2000/svg">
<path d="M42.2469 27.5907V11.8128H36.2271V8.43376H51.9637V11.8128H45.9438V27.5907H42.2476H42.2469Z" fill="#232624"/>
<path d="M49.4551 27.5907V13.7551H52.7026V16.1496C53.574 14.2869 54.5511 13.3559 56.452 13.3559C57.5082 13.3559 58.2473 13.5689 58.8814 14.0746L58.248 17.1877C57.7203 16.8951 57.1652 16.656 56.3471 16.656C54.0766 16.656 52.9406 18.3585 52.9406 21.0464V27.5914H49.4551V27.5907Z" fill="#232624"/>
<path d="M63.0529 21.6571C63.1852 23.9987 64.6109 25.0629 66.4328 25.0629C67.806 25.0629 68.8621 24.2645 69.2317 23.0141L72.4792 23.706C71.5288 26.5532 69.4164 27.9899 66.2214 27.9899C62.6043 27.9899 59.5674 25.6222 59.5674 20.6733C59.5674 15.7243 62.6302 13.3567 66.2214 13.3567C69.8126 13.3567 72.7165 15.7511 72.7165 20.1944C72.7165 20.8066 72.6899 21.5781 72.6899 21.6578H63.0522L63.0529 21.6571ZM63.1054 19.183H69.1519C69.0462 17.4536 67.8843 16.2829 66.1416 16.2829C64.7425 16.2829 63.3427 17.2674 63.1054 19.183Z" fill="#232624"/>
<path d="M74.9868 8.43376H78.4723V19.1562H79.1324C79.9247 19.1562 80.5581 19.0229 81.2447 18.1187C81.7465 17.4536 82.3008 15.8569 82.5388 15.4316C83.357 13.9413 84.3082 13.7551 86.1034 13.7551H86.8166L86.5262 16.8951H86.0243C85.0207 16.8951 84.8359 17.3211 84.4405 18.252C83.9386 19.3692 83.4109 20.0879 82.3806 20.3538V20.4603C83.3311 20.6733 84.2291 21.631 85.0473 22.988L87.3975 27.5907H83.5159L81.5617 23.5466C81.0074 22.4823 80.2676 22.0831 79.2122 22.0831H78.4731V27.5907H74.9875V8.43376H74.9868Z" fill="#232624"/>
<path d="M89.4556 11.786V8.43376H92.9411V11.786H89.4556ZM89.4556 27.5907V13.7551H92.9411V27.5907H89.4556Z" fill="#232624"/>
<path d="M103 27.4574C102.472 27.7232 101.231 27.8566 100.73 27.8566C97.8516 27.8566 96.9537 26.2605 96.9537 23.5466V16.5227H94.9995V13.7558H96.9537V10.6695L100.439 9.52556V13.7558H102.974V16.5227H100.439V22.7489C100.439 23.9465 100.439 24.7978 101.68 24.7978C101.944 24.7978 102.34 24.771 102.763 24.6384L103 27.4588V27.4574Z" fill="#232624"/>
<path d="M23.7758 25.6911C26.0664 25.2745 28.3003 24.6913 30.4636 23.9566C28.3614 30.3705 22.3638 35 15.2942 35C9.11043 35 3.74769 31.4587 1.09328 26.2801C2.28173 26.7945 3.59024 27.0785 4.96418 27.0785C5.1015 27.0785 5.23667 27.0756 5.37255 27.0698C7.08584 26.6496 10.1378 25.715 12.9396 23.903C17.1269 21.1956 10.969 20.8116 10.969 20.8116C10.969 20.8116 6.77812 19.5648 9.38724 17.35C6.41145 17.7586 3.53201 18.4723 0.779817 19.4576C0.751777 19.467 0.723738 19.4771 0.696417 19.488C0.462035 19.5713 0.230529 19.6575 -0.000976562 19.7459L0.100397 19.4576L0.759686 17.5877L2.16813 13.5907L3.1186 10.8956L3.93247 8.5859L4.28907 7.57452L4.9045 8.42797L5.00804 8.57286L6.6142 10.7999L8.14918 8.67139L10.7942 5.00259L14.3998 0L17.6122 4.4556L22.1855 10.7985L24.53 7.54699L25.8407 5.72925L27.7955 11.2759H27.7963L28.6116 13.5899L29.8626 17.1385L30.6793 19.4568L30.7979 19.7923C30.5262 19.688 30.2515 19.5865 29.9762 19.4873C29.9488 19.4764 29.9208 19.467 29.8913 19.4568C26.0506 18.0825 21.9626 17.237 17.7107 17.0073C17.1017 16.9733 16.4891 16.953 15.873 16.9465C15.8895 17.5362 16.4022 19.3996 21.9317 20.5523C25.804 21.3593 25.0455 23.8038 23.7766 25.6918L23.7758 25.6911Z" fill="url(#paint0_linear_125_205)"/>
<defs>
<linearGradient id="paint0_linear_125_205" x1="15.3985" y1="5.86111" x2="15.3985" y2="36.896" gradientUnits="userSpaceOnUse">
<stop offset="0.1" stop-color="#2FAC66"/>
<stop offset="0.92" stop-color="#4BC8EA"/>
</linearGradient>
</defs>
</svg>
